<svg xmlns="http://www.w3.org/2000/svg" width="1280" height="700" viewBox="0 0 1280 700" role="img" aria-label="Frontend layers from component to gateway"><rect width="1280" height="700" rx="16" fill="#F5F3EE"/><rect x="48" y="36" width="720" height="72" rx="10" fill="#FDFCFA" stroke="#E3DFD6" stroke-width="1"/><text x="64" y="53" font-family="Archivo, Inter, 'Segoe UI', Helvetica, Arial, sans-serif" font-size="15" font-weight="700" fill="#14130F" text-anchor="start">UI component</text><text x="64" y="72" font-family="Inter, 'Segoe UI', Helvetica, Arial, sans-serif" font-size="12" font-weight="400" fill="#696459" text-anchor="start">renders view models · no fetch, no URLs, no SDK</text><text x="64" y="89" font-family="Inter, 'Segoe UI', Helvetica, Arial, sans-serif" font-size="12" font-weight="400" fill="#696459" text-anchor="start">apps/*/src/pages, packages/ui-web</text><path d="M408 108 L408 132" fill="none" stroke="#CBC5B8" stroke-width="1.6"/><path d="M408.0 132.0 L404.1 123.9 L411.9 123.9 Z" fill="#CBC5B8"/><rect x="48" y="132" width="720" height="72" rx="10" fill="#FDFCFA" stroke="#E3DFD6" stroke-width="1"/><text x="64" y="149" font-family="Archivo, Inter, 'Segoe UI', Helvetica, Arial, sans-serif" font-size="15" font-weight="700" fill="#14130F" text-anchor="start">Feature hook</text><text x="64" y="168" font-family="Inter, 'Segoe UI', Helvetica, Arial, sans-serif" font-size="12" font-weight="400" fill="#696459" text-anchor="start">TanStack Query keys, stale times, invalidation</text><text x="64" y="185" font-family="Inter, 'Segoe UI', Helvetica, Arial, sans-serif" font-size="12" font-weight="400" fill="#696459" text-anchor="start">apps/*/src/hooks</text><path d="M408 204 L408 228" fill="none" stroke="#CBC5B8" stroke-width="1.6"/><path d="M408.0 228.0 L404.1 219.9 L411.9 219.9 Z" fill="#CBC5B8"/><rect x="48" y="228" width="720" height="72" rx="10" fill="#FDFCFA" stroke="#E3DFD6" stroke-width="1"/><text x="64" y="245" font-family="Archivo, Inter, 'Segoe UI', Helvetica, Arial, sans-serif" font-size="15" font-weight="700" fill="#14130F" text-anchor="start">Application service</text><text x="64" y="264" font-family="Inter, 'Segoe UI', Helvetica, Arial, sans-serif" font-size="12" font-weight="400" fill="#696459" text-anchor="start">placeBet(), session, runtime bootstrap</text><text x="64" y="281" font-family="Inter, 'Segoe UI', Helvetica, Arial, sans-serif" font-size="12" font-weight="400" fill="#696459" text-anchor="start">apps/*/src/services</text><path d="M408 300 L408 324" fill="none" stroke="#CBC5B8" stroke-width="1.6"/><path d="M408.0 324.0 L404.1 315.9 L411.9 315.9 Z" fill="#CBC5B8"/><rect x="48" y="324" width="720" height="72" rx="10" fill="#FDFCFA" stroke="#E3DFD6" stroke-width="1"/><text x="64" y="341" font-family="Archivo, Inter, 'Segoe UI', Helvetica, Arial, sans-serif" font-size="15" font-weight="700" fill="#14130F" text-anchor="start">Data source interface</text><text x="64" y="360" font-family="Inter, 'Segoe UI', Helvetica, Arial, sans-serif" font-size="12" font-weight="400" fill="#696459" text-anchor="start">BetNgDataSource · AuthDataSource · ShopDataSource · AdminDataSource</text><text x="64" y="377" font-family="Inter, 'Segoe UI', Helvetica, Arial, sans-serif" font-size="12" font-weight="400" fill="#696459" text-anchor="start">packages/ui-core</text><path d="M408 396 L408 420" fill="none" stroke="#CBC5B8" stroke-width="1.6"/><path d="M408.0 420.0 L404.1 411.9 L411.9 411.9 Z" fill="#CBC5B8"/><rect x="48" y="420" width="720" height="72" rx="10" fill="#FDFCFA" stroke="#2457F5" stroke-width="1.5"/><rect x="48" y="430" width="3" height="52" rx="1.5" fill="#2457F5"/><text x="64" y="437" font-family="Archivo, Inter, 'Segoe UI', Helvetica, Arial, sans-serif" font-size="15" font-weight="700" fill="#14130F" text-anchor="start">Platform adapter</text><text x="64" y="456" font-family="Inter, 'Segoe UI', Helvetica, Arial, sans-serif" font-size="12" font-weight="400" fill="#696459" text-anchor="start">wire contract → view model · one error model</text><text x="64" y="473" font-family="Inter, 'Segoe UI', Helvetica, Arial, sans-serif" font-size="12" font-weight="400" fill="#696459" text-anchor="start">packages/ui-core/src/adapters</text><path d="M408 492 L408 516" fill="none" stroke="#CBC5B8" stroke-width="1.6"/><path d="M408.0 516.0 L404.1 507.9 L411.9 507.9 Z" fill="#CBC5B8"/><rect x="48" y="516" width="720" height="72" rx="10" fill="#FDFCFA" stroke="#E3DFD6" stroke-width="1"/><text x="64" y="533" font-family="Archivo, Inter, 'Segoe UI', Helvetica, Arial, sans-serif" font-size="15" font-weight="700" fill="#14130F" text-anchor="start">SDK</text><text x="64" y="552" font-family="Inter, 'Segoe UI', Helvetica, Arial, sans-serif" font-size="12" font-weight="400" fill="#696459" text-anchor="start">REST requester · realtime client</text><text x="64" y="569" font-family="Inter, 'Segoe UI', Helvetica, Arial, sans-serif" font-size="12" font-weight="400" fill="#696459" text-anchor="start">packages/client-sdk</text><path d="M408 588 L408 612" fill="none" stroke="#CBC5B8" stroke-width="1.6"/><path d="M408.0 612.0 L404.1 603.9 L411.9 603.9 Z" fill="#CBC5B8"/><rect x="48" y="612" width="720" height="60" rx="10" fill="#FDFCFA" stroke="#E3142E" stroke-width="1.5"/><rect x="48" y="622" width="3" height="40" rx="1.5" fill="#E3142E"/><text x="408" y="647" font-family="Archivo, Inter, 'Segoe UI', Helvetica, Arial, sans-serif" font-size="15" font-weight="700" fill="#14130F" text-anchor="middle">Public gateway  /api/v1   ·   WS /live</text><rect x="820" y="414" width="412" height="84" rx="10" fill="#FDFCFA" stroke="#E3DFD6" stroke-width="1" stroke-dasharray="6 5"/><text x="836" y="428.5" font-family="Archivo, Inter, 'Segoe UI', Helvetica, Arial, sans-serif" font-size="15" font-weight="700" fill="#14130F" text-anchor="start">Development stand-in</text><text x="836" y="447.5" font-family="Inter, 'Segoe UI', Helvetica, Arial, sans-serif" font-size="12" font-weight="400" fill="#696459" text-anchor="start">packages/mock-data, same interfaces</text><text x="836" y="464.5" font-family="Inter, 'Segoe UI', Helvetica, Arial, sans-serif" font-size="12" font-weight="400" fill="#696459" text-anchor="start">dynamic import, development and test only</text><text x="836" y="481.5" font-family="Inter, 'Segoe UI', Helvetica, Arial, sans-serif" font-size="12" font-weight="400" fill="#696459" text-anchor="start">absent from staging and production bundles</text><path d="M820 456 L770 456" fill="none" stroke="#CBC5B8" stroke-width="1.6" stroke-dasharray="5 5"/><path d="M770.0 456.0 L778.1 452.1 L778.1 459.9 Z" fill="#CBC5B8"/><rect x="820" y="36" width="412" height="300" rx="14" fill="#ECE9E2" stroke="#E3DFD6"/><rect x="838" y="52" width="3" height="13" fill="#0E7553"/><text x="848" y="63" font-family="Inter, 'Segoe UI', Helvetica, Arial, sans-serif" font-size="11" font-weight="700" fill="#696459" text-anchor="start" letter-spacing="1.2">THE PLATFORM DECIDES</text><circle cx="848" cy="96" r="4" fill="#0E7553"/><text x="864" y="100" font-family="Inter, 'Segoe UI', Helvetica, Arial, sans-serif" font-size="14" font-weight="400" fill="#14130F" text-anchor="start">match state, phase and clock</text><circle cx="848" cy="134" r="4" fill="#0E7553"/><text x="864" y="138" font-family="Inter, 'Segoe UI', Helvetica, Arial, sans-serif" font-size="14" font-weight="400" fill="#14130F" text-anchor="start">results, odds, market status</text><circle cx="848" cy="172" r="4" fill="#0E7553"/><text x="864" y="176" font-family="Inter, 'Segoe UI', Helvetica, Arial, sans-serif" font-size="14" font-weight="400" fill="#14130F" text-anchor="start">bet acceptance and payouts</text><circle cx="848" cy="210" r="4" fill="#0E7553"/><text x="864" y="214" font-family="Inter, 'Segoe UI', Helvetica, Arial, sans-serif" font-size="14" font-weight="400" fill="#14130F" text-anchor="start">wallet balances</text><circle cx="848" cy="248" r="4" fill="#0E7553"/><text x="864" y="252" font-family="Inter, 'Segoe UI', Helvetica, Arial, sans-serif" font-size="14" font-weight="400" fill="#14130F" text-anchor="start">risk decisions, operator figures</text><circle cx="848" cy="286" r="4" fill="#0E7553"/><text x="864" y="290" font-family="Inter, 'Segoe UI', Helvetica, Arial, sans-serif" font-size="14" font-weight="400" fill="#14130F" text-anchor="start">roles and permissions</text></svg>
